<?xml version="1.0" encoding="UTF-8"?>
<svg id="Logo" xmlns="http://www.w3.org/2000/svg" viewBox="0 0 377.54 492.67">
  <defs>
    <style>
      .cls-1 {
        fill: #408ecc;
        stroke-width: 0px;
      }
    </style>
  </defs>
  <path id="LogoPath" class="cls-1" d="m0,425.68V81.47C0,55.45,13.14.85,75.49.34S163.35.05,187.56.05c87.64-1.61,184.48,83.59,119.55,215.65-17.94-14.23-19.36-15.38-35.81-28.86,28.34-43.54,14.69-141.45-90.43-141.45-126.32,0-95.33-.52-105.63-.52s-27.9,8.5-28.41,30.66c-.52,22.16-1.47,280.06-1.47,333.9,0,16.75,3.09,36.84,24.73,36.84,25.76,0,131.14.46,170.56,0,87.86,1.03,124.18-106.92,62.83-161.42-54.11-42-99.07-78.19-107.32-82.31-52.65-20.87-82.88,27.14-67.07,64.67,15.57,36.98,78.07,44.83,105.2-21.04,11.77,9.19,22.59,18.46,34.7,27.48-40.19,99.45-187.56,82.7-190.14-23.09-2.52-103.38,105.89-112.69,147.89-82.03,8.76,6.7,102.29,80.07,110.79,87.6,67.76,57.71,59.52,236.52-103.32,236.52-61.32,0-108.99-.17-167.73-1.03C31.17,491.12,0,449.38,0,425.68Z"/>
</svg>